<?xml version="1.0" encoding="utf-8"?>
<!-- Generator: Adobe Illustrator 16.0.0, SVG Export Plug-In . SVG Version: 6.00 Build 0)  -->
<!DOCTYPE svg PUBLIC "-//W3C//DTD SVG 1.1//EN" "http://www.w3.org/Graphics/SVG/1.1/DTD/svg11.dtd">
<svg version="1.1" id="Layer_1" xmlns="http://www.w3.org/2000/svg" xmlns:xlink="http://www.w3.org/1999/xlink" x="0px" y="0px"
	 width="246.164px" height="127.118px" viewBox="0 0 246.164 127.118" enable-background="new 0 0 246.164 127.118"
	 xml:space="preserve">
<g>
	<g>
		<g>
			<g>
				<path fill="#FFFFFF" d="M134.001,78.043"/>
			</g>
			<g>
				<path fill="#FFFFFF" d="M133.964,48.781"/>
			</g>
			<g>
				<path fill="#FFFFFF" d="M117.079,11.874c-0.604-0.538-1.505-0.48-2.01,0.132l-7.542,8.376c-0.527,0.567-0.478,1.5,0.117,1.992
					l8.735,7.848c0.562,0.519,1.473,0.48,2.005-0.103l7.519-8.397c0.533-0.572,0.467-1.477-0.109-2.01L117.079,11.874z"/>
				<path fill="#FFFFFF" d="M119.037,23.289"/>
			</g>
			<g>
				<path fill="#FFFFFF" d="M64.595,8.722"/>
			</g>
			<g>
				<path fill="#FFFFFF" d="M93.066,111.546c0.75-0.104,1.484,0.452,1.626,1.188l1.802,11.132c0.133,0.787-0.368,1.51-1.146,1.621
					l-11.598,1.907c-0.736,0.126-1.496-0.407-1.633-1.161l-1.812-11.125c-0.133-0.771,0.396-1.535,1.171-1.638L93.066,111.546z"/>
				<path fill="#FFFFFF" d="M93.75,118.257"/>
			</g>
			<g>
				<path fill="#FFFFFF" d="M115.286,98.039c0.595-0.528,1.479-0.448,1.972,0.188l7.159,8.721c0.472,0.623,0.387,1.501-0.191,1.992
					l-9.081,7.428c-0.604,0.514-1.539,0.453-2.019-0.197l-7.116-8.73c-0.515-0.59-0.412-1.477,0.174-1.957L115.286,98.039z"/>
				<path fill="#FFFFFF" d="M119.201,103.369"/>
			</g>
			<g>
				<path fill="#FFFFFF" d="M35.762,16.449c0.528-0.622,1.397-0.643,1.972-0.103l8.415,7.528c0.612,0.508,0.643,1.381,0.114,1.985
					l-7.812,8.74c-0.547,0.576-1.481,0.626-2.028,0.103l-8.406-7.537c-0.587-0.519-0.622-1.425-0.111-1.971L35.762,16.449z"/>
				<path fill="#FFFFFF" d="M39.276,23.419"/>
			</g>
			<g>
				<path fill="#FFFFFF" d="M24.616,48.673"/>
			</g>
			<g>
				<path fill="#FFFFFF" d="M24.333,78.158"/>
			</g>
			<g>
				<path fill="#FFFFFF" d="M86.272,0.033c-0.75-0.167-1.522,0.323-1.66,1.084l-2.334,11.04c-0.16,0.787,0.341,1.542,1.086,1.683
					l11.493,2.431c0.789,0.179,1.509-0.35,1.694-1.113l2.321-11.049c0.169-0.759-0.346-1.505-1.087-1.646L86.272,0.033z"/>
				<path fill="#FFFFFF" d="M93.649,9.024"/>
			</g>
			<g>
				<path fill="#FFFFFF" d="M37.297,90.263c-0.479-0.592-1.37-0.725-1.987-0.196l-8.71,7.159c-0.647,0.502-0.695,1.359-0.231,1.972
					l7.432,9.108c0.515,0.585,1.434,0.692,2.024,0.18l8.73-7.154c0.576-0.501,0.697-1.389,0.194-1.987L37.297,90.263z"/>
				<path fill="#FFFFFF" d="M39.148,103.369"/>
			</g>
			<g>
				<path fill="#FFFFFF" d="M56.413,107.962c-0.718-0.317-1.548,0.09-1.841,0.791l-3.99,10.586c-0.268,0.725,0.094,1.562,0.839,1.82
					l10.972,4.146c0.723,0.283,1.549-0.089,1.859-0.835l3.961-10.551c0.261-0.723-0.08-1.553-0.821-1.807L56.413,107.962z"/>
				<path fill="#FFFFFF" d="M64.595,118.273"/>
			</g>
			<path fill="#FFFFFF" d="M79.108,63.498"/>
		</g>
		<g>
			<path fill="#FFFFFF" d="M20.803,72.766c0,0.421-0.719,1.989-2.507,3.675c-1.797,1.678-4.342,2.521-7.493,2.521
				C4.256,78.962,0,74.892,0,68.767v-7.826c0-6.081,4.256-10.173,10.803-10.173c1.904,0,3.578,0.338,5.088,1.038
				c3.186,1.422,4.854,3.759,4.854,4.999c0,0.258-0.114,0.386-0.35,0.492l-3.867,1.923c-0.094,0.053-0.208,0.053-0.265,0.053
				c-0.245,0-0.32-0.098-0.499-0.327c-1.464-1.999-2.516-3.379-4.962-3.379c-3.058,0-5.406,2.447-5.406,5.376v7.826
				c0,2.924,2.349,5.385,5.406,5.385c1.429,0,2.641-0.518,3.32-1.311c1.311-1.58,1.82-2.522,2.197-2.522
				c0.114,0,0.208,0.06,0.359,0.14l3.772,1.894C20.716,72.455,20.803,72.62,20.803,72.766z"/>
			<path fill="#FFFFFF" d="M30.546,78.332h-4.221c-0.4,0-0.595-0.15-0.595-0.566V41.182c0-0.432,0.194-0.636,0.595-0.636h4.221
				c0.405,0,0.586,0.204,0.586,0.636v36.583C31.132,78.181,30.951,78.332,30.546,78.332z"/>
			<path fill="#FFFFFF" d="M47.879,78.962c-6.569,0-10.805-4.07-10.805-10.195v-7.826c0-6.081,4.235-10.173,10.805-10.173
				c6.506,0,10.777,4.132,10.777,10.173v7.826C58.656,74.892,54.385,78.962,47.879,78.962z M53.267,60.941
				c0-2.929-2.396-5.376-5.388-5.376c-3.022,0-5.419,2.447-5.419,5.376v7.826c0,2.924,2.325,5.385,5.419,5.385
				c2.991,0,5.388-2.461,5.388-5.385V60.941z"/>
			<path fill="#FFFFFF" d="M85.468,72.766c0,0.421-0.736,1.989-2.524,3.675c-1.776,1.678-4.306,2.521-7.505,2.521
				c-6.547,0-10.764-4.07-10.764-10.195v-7.826c0-6.081,4.217-10.173,10.764-10.173c1.926,0,3.595,0.338,5.122,1.038
				c3.181,1.422,4.841,3.759,4.841,4.999c0,0.258-0.132,0.386-0.368,0.492l-3.82,1.923c-0.138,0.053-0.24,0.053-0.293,0.053
				c-0.264,0-0.32-0.098-0.476-0.327c-1.464-1.999-2.552-3.379-5.006-3.379c-3.046,0-5.381,2.447-5.381,5.376v7.826
				c0,2.924,2.335,5.385,5.381,5.385c1.464,0,2.652-0.518,3.284-1.311c1.357-1.58,1.877-2.522,2.25-2.522
				c0.103,0,0.24,0.06,0.363,0.14l3.764,1.894C85.326,72.455,85.468,72.62,85.468,72.766z"/>
			<path fill="#FFFFFF" d="M113.126,77.842c0,0.276-0.227,0.489-0.661,0.489h-5.273l-0.556-0.27l-7.594-12.483
				c-0.128-0.226-0.341-0.354-0.515-0.354c-0.165,0-0.354,0.062-0.484,0.25l-2.275,2.303v9.988c0,0.416-0.17,0.566-0.588,0.566
				h-4.176c-0.443,0-0.617-0.15-0.617-0.566V41.182c0-0.432,0.174-0.636,0.617-0.636h4.176c0.418,0,0.588,0.204,0.588,0.636v18.712
				c0,0.409,0.256,0.652,0.519,0.652c0.208,0,0.398-0.053,0.51-0.243l7.99-8.749l0.421-0.201h5.069c0.425,0,0.679,0.201,0.679,0.508
				c0,0.151-0.036,0.327-0.254,0.519l-7.783,7.923c-0.112,0.19-0.215,0.302-0.215,0.398c0,0.16,0.036,0.217,0.103,0.302
				l10.201,16.459C113.036,77.564,113.126,77.765,113.126,77.842z"/>
		</g>
		<g>
			<path fill="#FFFFFF" d="M176.698,55.323c-2.973,0-5.396,2.458-5.396,5.424v7.77c0,2.966,2.312,5.381,5.396,5.381
				c2.998,0,5.395-2.415,5.395-5.381v-7.77C182.093,57.781,179.696,55.323,176.698,55.323z"/>
			<path fill="#FFFFFF" d="M243.984,47.182c-9.092-33.866-43.907-53.938-77.76-44.878c-33.875,9.081-53.978,43.893-44.869,77.727
				c9.032,33.863,43.87,53.991,77.699,44.906C232.967,115.857,253.061,81.048,243.984,47.182z M162.9,51.895l-7.74,25.806
				c-0.131,0.307-0.272,0.418-0.57,0.418h-3.409c-0.15,0-0.389-0.111-0.567-0.418l-5.165-20.638l-5.188,20.638
				c-0.104,0.307-0.268,0.418-0.617,0.418h-3.48c-0.368,0-0.538-0.111-0.608-0.418l-7.626-25.806c0-0.089-0.039-0.16-0.039-0.217
				c0-0.354,0.266-0.551,0.651-0.551h4.386c0.17,0,0.351,0.098,0.604,0.441L138,70.791l4.827-19.222
				c0.268-0.343,0.4-0.441,0.574-0.441h4.065c0.327,0,0.511,0.098,0.581,0.441l4.784,19.222l4.427-19.222
				c0.062-0.245,0.312-0.441,0.695-0.441h4.377c0.404,0,0.649,0.197,0.649,0.551C162.98,51.735,162.9,51.806,162.9,51.895z
				 M187.508,68.517c0,6.121-4.274,10.225-10.81,10.225c-6.524,0-10.779-4.104-10.779-10.225v-7.77
				c0-6.126,4.255-10.224,10.779-10.224c6.535,0,10.81,4.16,10.81,10.224V68.517z M207.592,56.405c0,0.352-0.138,0.608-0.378,0.608
				c-0.491,0-1.425-0.443-2.925-0.443c-3.311,0-5.385,2.051-5.385,5.367v15.603c0,0.402-0.181,0.58-0.6,0.58h-4.221
				c-0.398,0-0.567-0.178-0.567-0.58V51.735c0-0.411,0.169-0.608,0.567-0.608h3.631c0.409,0,0.59,0.197,0.59,0.608v1.892
				c0,0.498,0.245,0.741,0.542,0.741c0.604,0,2.367-3.24,5.655-3.24c2.282,0,3.09,0.075,3.09,0.768V56.405z M233.92,78.119h-5.284
				l-0.526-0.315l-7.614-12.45c-0.107-0.238-0.329-0.351-0.494-0.351c-0.164,0-0.341,0.066-0.457,0.222l-2.284,2.354v9.961
				c0,0.402-0.179,0.58-0.631,0.58h-4.179c-0.411,0-0.594-0.178-0.594-0.58V40.946c0-0.432,0.183-0.604,0.594-0.604h4.179
				c0.452,0,0.631,0.171,0.631,0.604v18.708c0,0.396,0.208,0.649,0.51,0.649c0.208,0,0.382-0.073,0.482-0.254l7.99-8.726
				l0.443-0.197h5.092c0.407,0,0.67,0.197,0.67,0.499c0,0.181-0.084,0.368-0.263,0.523l-7.793,7.9
				c-0.142,0.181-0.249,0.311-0.249,0.444c0,0.112,0.07,0.183,0.107,0.302l10.213,16.427c0.041,0.129,0.128,0.316,0.128,0.426
				C234.591,77.888,234.339,78.119,233.92,78.119z"/>
		</g>
	</g>
	<g>
		<path fill="#FFFFFF" d="M57.998,18.136c-0.732,0.282-1.543-0.164-1.801-0.88L52.723,6.492c-0.231-0.737,0.17-1.556,0.926-1.778
			l11.16-3.611c0.736-0.247,1.543,0.164,1.816,0.924l3.446,10.73c0.226,0.734-0.154,1.547-0.907,1.765L57.998,18.136z"/>
		<path fill="#FFFFFF" d="M66.595,7.979"/>
	</g>
</g>
</svg>
