<?xml version="1.0" encoding="utf-8"?>
<!-- Generator: Adobe Illustrator 17.0.0, SVG Export Plug-In . SVG Version: 6.00 Build 0)  -->
<!DOCTYPE svg PUBLIC "-//W3C//DTD SVG 1.1//EN" "http://www.w3.org/Graphics/SVG/1.1/DTD/svg11.dtd">
<svg version="1.1" id="Layer_1" xmlns="http://www.w3.org/2000/svg" xmlns:xlink="http://www.w3.org/1999/xlink" x="0px" y="0px"
	 width="266.75px" height="221.665px" viewBox="0 0 266.75 221.665" enable-background="new 0 0 266.75 221.665"
	 xml:space="preserve">
<circle fill="#D1D3D4" cx="137.611" cy="111.071" r="111.071"/>
<circle fill="#E6E7E8" cx="137.611" cy="111.071" r="105.787"/>
<polygon fill="#D2AA0A" points="23.179,177.549 0,116.983 5.234,90.813 28.787,72.12 41.872,50.436 74.772,46.697 95.708,32.491 
	116.645,31.743 140.572,12.302 167.49,12.302 184.687,31.743 204.876,26.883 234.785,36.229 246.748,59.409 246.748,82.588 
	257.217,96.795 256.469,125.208 266.75,150.818 254.973,176.053 243.01,200.728 238.897,210.636 227.868,217.739 213.849,221.665 
	184.501,219.234 159.265,219.421 143.563,208.953 139.824,183.531 127.113,176.801 119.636,187.269 97.204,193.251 74.772,188.765 
	63.556,184.278 44.116,189.512 "/>
<polygon fill="#FFCD05" points="26.731,172.128 43.368,182.783 58.322,174.558 61.687,143.154 67.669,107.637 65.8,100.16 
	60.752,94.926 66.547,96.982 68.604,100.347 72.342,92.495 79.446,85.018 73.651,93.991 70.473,105.768 64.491,145.771 
	67.295,173.997 77.95,183.344 98.326,186.335 116.084,180.353 118.888,171.006 109.167,158.295 109.915,133.994 119.636,88.944 
	120.383,74.363 114.962,65.951 123,71.746 123.748,76.98 130.478,68.755 135.899,65.391 130.291,72.307 123.935,87.074 
	116.832,116.423 116.271,133.807 119.823,156.426 143.189,171.941 155.152,172.689 145.806,182.035 147.862,205.775 
	160.573,216.244 184.687,214.748 212.166,217.926 225.812,214.187 235.346,205.962 237.963,189.699 240.954,197.364 
	248.244,179.418 248.992,170.259 246.748,161.099 251.609,168.202 252.73,171.754 257.777,161.473 260.768,149.883 256.843,138.293 
	252.169,125.956 254.226,106.141 251.796,97.356 246.748,89.692 242.075,107.076 242.449,122.404 248.618,120.722 241.514,130.629 
	240.58,143.341 234.598,153.996 225.438,162.408 230.299,166.146 231.981,171.567 223.569,166.894 204.689,169.324 177.771,167.642 
	167.677,168.389 174.219,160.725 174.219,134.368 176.836,116.049 185.622,90.813 184.687,75.859 178.706,65.204 187.678,75.111 
	188.239,77.541 196.09,68.008 206.184,64.082 196.464,71.933 189.174,82.214 188.987,92.309 181.323,116.236 179.453,137.733 
	182.818,151.939 203.567,159.791 221.326,158.482 231.046,149.509 235.906,139.041 237.215,106.515 241.701,82.775 241.514,60.53 
	229.551,39.22 205.624,31.369 182.07,37.351 163.377,16.415 142.067,17.536 119.262,38.099 97.204,37.351 76.828,52.594 
	45.611,55.296 31.778,74.737 8.225,92.682 3.365,116.423 16.229,147.091 15.328,126.891 9.907,121.096 7.103,112.497 
	11.216,119.413 14.768,122.591 15.889,106.328 18.132,126.891 20.419,157.079 "/>
<polygon fill="#D2AA0A" points="155.277,181.288 148.797,189.388 150.666,201.85 159.639,212.318 183.317,209.327 188.052,200.853 
	187.429,193.999 181.447,186.771 "/>
<polygon fill="#FFCD05" points="156.523,184.403 152.162,190.509 152.909,200.354 160.262,209.078 181.946,206.212 184.937,199.981 
	184.687,195.993 179.453,189.014 "/>
<g enable-background="new    ">
	<path fill="#957900" d="M40.578,117.17c3.721-0.744,6.705-0.143,9.697,1.658c0.395,0.231,0.484,0.678,0.246,1.035l-2.299,3.594
		c-0.208,0.312-0.618,0.395-0.931,0.186c-1.622-0.951-3.58-1.255-5.403-0.891c-4.205,0.842-6.593,4.957-5.759,9.125
		c0.827,4.13,4.638,6.929,8.843,6.087c1.749-0.351,3.52-1.363,4.628-2.785c0.216-0.274,0.7-0.371,0.975-0.156l3.521,2.507
		c0.313,0.209,0.372,0.699,0.164,1.013c-2.039,2.962-5.007,4.757-8.319,5.42c-7.441,1.49-14.617-3.228-16.107-10.67
		C28.344,125.85,33.136,118.661,40.578,117.17z"/>
</g>
<g enable-background="new    ">
	<path fill="#957900" d="M75.513,103.401c-0.195-0.534,0.088-0.944,0.632-0.983l4.546-0.327c0.311-0.022,0.642,0.228,0.738,0.493
		l4.29,12.932l0.155-0.012l5.038-14.111c0.1-0.241,0.319-0.452,0.63-0.474l0.699-0.051c0.35-0.025,0.597,0.152,0.691,0.379
		l7.007,13.244l0.155-0.011l2.394-13.413c0.058-0.277,0.35-0.572,0.66-0.595l4.546-0.327c0.544-0.039,0.883,0.326,0.767,0.882
		l-5.464,26.639c-0.056,0.316-0.35,0.572-0.66,0.595l-0.622,0.045c-0.271,0.02-0.558-0.156-0.69-0.38l-8.255-15.38l-0.117,0.009
		l-5.927,16.4c-0.101,0.24-0.358,0.455-0.63,0.475l-0.622,0.045c-0.311,0.022-0.638-0.188-0.738-0.494L75.513,103.401z"/>
</g>
<g enable-background="new    ">
	<path fill="#957900" d="M143.378,87.162c0.009-0.458,0.383-0.861,0.887-0.852l18.947,0.381c0.504,0.011,0.862,0.429,0.853,0.887
		l-0.101,4.989c-0.009,0.457-0.383,0.862-0.887,0.852L150.4,93.164l-0.133,6.591l10.434,0.21c0.458,0.01,0.862,0.43,0.853,0.887
		l-0.1,4.988c-0.01,0.458-0.43,0.862-0.888,0.853l-10.435-0.21l-0.224,11.121c-0.009,0.458-0.429,0.862-0.887,0.853l-5.4-0.108
		c-0.504-0.01-0.862-0.43-0.853-0.888L143.378,87.162z"/>
</g>
<g enable-background="new    ">
	<path fill="#957900" d="M203.67,88.097c0.078-0.335,0.449-0.559,0.75-0.522l0.604,0.071c0.188,0.022,0.51,0.213,0.596,0.452
		l6.81,17.318l0.075,0.009l10.676-15.242c0.14-0.212,0.497-0.322,0.685-0.3l0.604,0.071c0.301,0.036,0.608,0.34,0.606,0.684
		l1.252,25.828c0.017,0.499-0.362,0.798-0.814,0.744l-4.447-0.528c-0.338-0.04-0.643-0.382-0.645-0.688l-0.312-11.845l-0.075-0.009
		l-7.78,11.457c-0.141,0.214-0.502,0.361-0.69,0.339l-0.679-0.08c-0.226-0.026-0.504-0.251-0.591-0.491l-4.919-12.965l-0.075-0.009
		l-3.041,11.446c-0.073,0.298-0.41,0.563-0.786,0.519l-4.447-0.528c-0.453-0.054-0.752-0.433-0.618-0.914L203.67,88.097z"/>
</g>
<g enable-background="new    ">
	<path fill="#D2AA0A" d="M23.767,110.123l-1.292,0.369c-0.134,0.039-0.277-0.052-0.315-0.187l-0.242-0.848
		c-0.016-0.053-0.006-0.173,0.023-0.224l1.525-2.095l1.238-0.354c0.134-0.039,0.276,0.052,0.315,0.186l2.471,8.636
		c0.038,0.135-0.035,0.286-0.169,0.325l-1.494,0.427c-0.148,0.043-0.291-0.048-0.329-0.183L23.767,110.123z"/>
	<path fill="#D2AA0A" d="M28.997,113.895l0.608-1.076c0.058-0.104,0.186-0.169,0.312-0.133c0,0,1.139,0.372,1.785,0.188
		c0.727-0.208,1.124-0.904,0.913-1.643c-0.208-0.727-0.884-1.159-1.758-0.909l-2.072,0.592c-0.269,0.077-0.49-0.135-0.551-0.35
		l-1.193-4.171c-0.039-0.134,0.035-0.286,0.183-0.328l4.332-1.239c0.148-0.042,0.291,0.048,0.329,0.182l0.338,1.184
		c0.039,0.135-0.035,0.287-0.183,0.329l-2.771,0.793l0.412,1.439l0.955-0.273c1.856-0.531,3.44,0.428,3.944,2.19
		c0.481,1.681-0.558,3.491-2.441,4.03c-1.399,0.4-2.531-0.046-2.983-0.354C28.922,114.194,28.882,114.103,28.997,113.895z"/>
	<path fill="#D2AA0A" d="M35.274,108.709c-0.843-2.945-0.096-5.066,2.097-5.693c2.193-0.627,3.948,0.777,4.791,3.723
		c0.843,2.946,0.096,5.066-2.097,5.693C37.872,113.059,36.117,111.655,35.274,108.709z M39.996,107.358
		c-0.504-1.763-1.246-2.627-2.067-2.393c-0.821,0.235-0.994,1.361-0.49,3.124c0.508,1.776,1.247,2.627,2.067,2.392
		C40.328,110.247,40.504,109.135,39.996,107.358z"/>
	<path fill="#D2AA0A" d="M45.162,108.209c0.7-0.2,1.461,0.222,1.661,0.921c0.196,0.687-0.229,1.434-0.93,1.634
		c-0.686,0.196-1.43-0.217-1.626-0.903C44.067,109.162,44.477,108.405,45.162,108.209z"/>
	<path fill="#D2AA0A" d="M46.984,103.482l-1.292,0.369c-0.134,0.039-0.277-0.052-0.315-0.187l-0.243-0.848
		c-0.015-0.053-0.005-0.172,0.023-0.224l1.525-2.095l1.238-0.354c0.134-0.038,0.276,0.052,0.315,0.186l2.47,8.637
		c0.039,0.135-0.034,0.287-0.168,0.325l-1.494,0.427c-0.148,0.042-0.291-0.048-0.329-0.183L46.984,103.482z"/>
</g>
</svg>
