<?xml version="1.0" encoding="utf-8"?>
<!-- Generator: Adobe Illustrator 17.0.2, SVG Export Plug-In . SVG Version: 6.00 Build 0)  -->
<!DOCTYPE svg PUBLIC "-//W3C//DTD SVG 1.1//EN" "http://www.w3.org/Graphics/SVG/1.1/DTD/svg11.dtd">
<svg version="1.1" id="Layer_1" xmlns="http://www.w3.org/2000/svg" xmlns:xlink="http://www.w3.org/1999/xlink" x="0px" y="0px"
	 width="150px" height="150px" viewBox="0 0 150 150" enable-background="new 0 0 150 150" xml:space="preserve">
<g>
	<g>
		<g>
			<circle fill="#D1D3D4" cx="77.33" cy="75" r="61.105"/>
		</g>
	</g>
	<g>
		<g>
			<circle fill="#E6E7E8" cx="77.33" cy="75" r="58.198"/>
		</g>
	</g>
	<g>
		<defs>
			<circle id="SVGID_1_" cx="77.33" cy="75" r="58.198"/>
		</defs>
		<clipPath id="SVGID_2_">
			<use xlink:href="#SVGID_1_"  overflow="visible"/>
		</clipPath>
		<g clip-path="url(#SVGID_2_)">
			<g>
				
					<rect x="-51.306" y="113.915" transform="matrix(0.7071 0.7071 -0.7071 0.7071 89.5393 12.0769)" fill="#D1D3D4" width="162.995" height="0.413"/>
			</g>
			<g>
				
					<rect x="-50.239" y="112.849" transform="matrix(0.7071 0.7071 -0.7071 0.7071 89.0974 11.0105)" fill="#D1D3D4" width="162.995" height="0.413"/>
			</g>
			<g>
				
					<rect x="-49.173" y="111.782" transform="matrix(0.7071 0.7071 -0.7071 0.7071 88.6558 9.9444)" fill="#D1D3D4" width="162.994" height="0.413"/>
			</g>
			<g>
				
					<rect x="-48.107" y="110.716" transform="matrix(0.7071 0.7071 -0.7071 0.7071 88.2139 8.8779)" fill="#D1D3D4" width="162.994" height="0.413"/>
			</g>
			<g>
				
					<rect x="-47.041" y="109.65" transform="matrix(0.7071 0.7071 -0.7071 0.7071 87.7726 7.8117)" fill="#D1D3D4" width="162.995" height="0.413"/>
			</g>
			<g>
				
					<rect x="-45.974" y="108.583" transform="matrix(0.7071 0.7071 -0.7071 0.7071 87.3308 6.7453)" fill="#D1D3D4" width="162.995" height="0.413"/>
			</g>
			<g>
				
					<rect x="-44.908" y="107.517" transform="matrix(0.7071 0.7071 -0.7071 0.7071 86.8889 5.6789)" fill="#D1D3D4" width="162.995" height="0.413"/>
			</g>
			<g>
				
					<rect x="-43.841" y="106.451" transform="matrix(0.7071 0.7071 -0.7071 0.7071 86.4474 4.6127)" fill="#D1D3D4" width="162.994" height="0.413"/>
			</g>
			<g>
				
					<rect x="-42.775" y="105.384" transform="matrix(0.7071 0.7071 -0.7071 0.7071 86.0054 3.5463)" fill="#D1D3D4" width="162.994" height="0.413"/>
			</g>
			<g>
				
					<rect x="-41.709" y="104.318" transform="matrix(0.7071 0.7071 -0.7071 0.7071 85.5641 2.4801)" fill="#D1D3D4" width="162.995" height="0.413"/>
			</g>
			<g>
				
					<rect x="-40.642" y="103.252" transform="matrix(0.7071 0.7071 -0.7071 0.7071 85.1224 1.4136)" fill="#D1D3D4" width="162.994" height="0.413"/>
			</g>
			<g>
				
					<rect x="-39.576" y="102.186" transform="matrix(0.7071 0.7071 -0.7071 0.7071 84.6805 0.3472)" fill="#D1D3D4" width="162.995" height="0.413"/>
			</g>
			<g>
				
					<rect x="-38.51" y="101.119" transform="matrix(0.7071 0.7071 -0.7071 0.7071 84.2389 -0.7189)" fill="#D1D3D4" width="162.994" height="0.413"/>
			</g>
			<g>
				
					<rect x="-37.444" y="100.053" transform="matrix(0.7071 0.7071 -0.7071 0.7071 83.797 -1.7853)" fill="#D1D3D4" width="162.994" height="0.413"/>
			</g>
			<g>
				
					<rect x="-36.377" y="98.987" transform="matrix(0.7071 0.7071 -0.7071 0.7071 83.3557 -2.8516)" fill="#D1D3D4" width="162.995" height="0.413"/>
			</g>
			<g>
				
					<rect x="-35.311" y="97.92" transform="matrix(0.7071 0.7071 -0.7071 0.7071 82.9138 -3.918)" fill="#D1D3D4" width="162.995" height="0.413"/>
			</g>
			<g>
				
					<rect x="-34.245" y="96.854" transform="matrix(0.7071 0.7071 -0.7071 0.7071 82.4721 -4.9844)" fill="#D1D3D4" width="162.995" height="0.413"/>
			</g>
			<g>
				
					<rect x="-33.178" y="95.787" transform="matrix(0.7071 0.7071 -0.7071 0.7071 82.0305 -6.0506)" fill="#D1D3D4" width="162.994" height="0.413"/>
			</g>
			<g>
				
					<rect x="-32.112" y="94.721" transform="matrix(0.7071 0.7071 -0.7071 0.7071 81.5886 -7.117)" fill="#D1D3D4" width="162.994" height="0.413"/>
			</g>
			<g>
				
					<rect x="-31.046" y="93.655" transform="matrix(0.7071 0.7071 -0.7071 0.7071 81.1473 -8.1833)" fill="#D1D3D4" width="162.995" height="0.413"/>
			</g>
			<g>
				
					<rect x="-29.979" y="92.589" transform="matrix(0.7071 0.7071 -0.7071 0.7071 80.7054 -9.2496)" fill="#D1D3D4" width="162.995" height="0.413"/>
			</g>
			<g>
				
					<rect x="-28.913" y="91.522" transform="matrix(0.7071 0.7071 -0.7071 0.7071 80.2638 -10.3158)" fill="#D1D3D4" width="162.994" height="0.413"/>
			</g>
			<g>
				
					<rect x="-27.847" y="90.456" transform="matrix(0.7071 0.7071 -0.7071 0.7071 79.8219 -11.3822)" fill="#D1D3D4" width="162.994" height="0.413"/>
			</g>
			<g>
				
					<rect x="-26.78" y="89.39" transform="matrix(0.7071 0.7071 -0.7071 0.7071 79.3801 -12.4486)" fill="#D1D3D4" width="162.994" height="0.413"/>
			</g>
			<g>
				
					<rect x="-25.714" y="88.323" transform="matrix(0.7071 0.7071 -0.7071 0.7071 78.9388 -13.5149)" fill="#D1D3D4" width="162.995" height="0.413"/>
			</g>
			<g>
				
					<rect x="-24.648" y="87.257" transform="matrix(0.7071 0.7071 -0.7071 0.7071 78.4969 -14.5813)" fill="#D1D3D4" width="162.995" height="0.413"/>
			</g>
			<g>
				
					<rect x="-23.581" y="86.191" transform="matrix(0.7071 0.7071 -0.7071 0.7071 78.0554 -15.6475)" fill="#D1D3D4" width="162.994" height="0.413"/>
			</g>
			<g>
				
					<rect x="-22.515" y="85.124" transform="matrix(0.7071 0.7071 -0.7071 0.7071 77.6134 -16.7138)" fill="#D1D3D4" width="162.994" height="0.413"/>
			</g>
			<g>
				
					<rect x="-21.449" y="84.058" transform="matrix(0.7071 0.7071 -0.7071 0.7071 77.1721 -17.7802)" fill="#D1D3D4" width="162.995" height="0.413"/>
			</g>
			<g>
				
					<rect x="-20.382" y="82.992" transform="matrix(0.7071 0.7071 -0.7071 0.7071 76.7304 -18.8466)" fill="#D1D3D4" width="162.994" height="0.413"/>
			</g>
			<g>
				
					<rect x="-19.316" y="81.925" transform="matrix(0.7071 0.7071 -0.7071 0.7071 76.2885 -19.9129)" fill="#D1D3D4" width="162.995" height="0.413"/>
			</g>
			<g>
				
					<rect x="-18.25" y="80.859" transform="matrix(0.7071 0.7071 -0.7071 0.7071 75.8469 -20.9791)" fill="#D1D3D4" width="162.994" height="0.413"/>
			</g>
			<g>
				
					<rect x="-17.183" y="79.793" transform="matrix(0.7071 0.7071 -0.7071 0.7071 75.405 -22.0455)" fill="#D1D3D4" width="162.994" height="0.413"/>
			</g>
			<g>
				
					<rect x="-16.117" y="78.727" transform="matrix(0.7071 0.7071 -0.7071 0.7071 74.9637 -23.1118)" fill="#D1D3D4" width="162.995" height="0.413"/>
			</g>
			<g>
				
					<rect x="-15.051" y="77.66" transform="matrix(0.7071 0.7071 -0.7071 0.7071 74.5218 -24.1781)" fill="#D1D3D4" width="162.995" height="0.413"/>
			</g>
			<g>
				
					<rect x="-13.984" y="76.594" transform="matrix(0.7071 0.7071 -0.7071 0.7071 74.08 -25.2446)" fill="#D1D3D4" width="162.995" height="0.413"/>
			</g>
			<g>
				
					<rect x="-12.918" y="75.527" transform="matrix(0.7071 0.7071 -0.7071 0.7071 73.6385 -26.3108)" fill="#D1D3D4" width="162.994" height="0.413"/>
			</g>
			<g>
				
					<rect x="-11.852" y="74.461" transform="matrix(0.7071 0.7071 -0.7071 0.7071 73.1966 -27.3771)" fill="#D1D3D4" width="162.994" height="0.413"/>
			</g>
			<g>
				
					<rect x="-10.786" y="73.395" transform="matrix(0.7071 0.7071 -0.7071 0.7071 72.7553 -28.4435)" fill="#D1D3D4" width="162.995" height="0.413"/>
			</g>
			<g>
				
					<rect x="-9.719" y="72.329" transform="matrix(0.7071 0.7071 -0.7071 0.7071 72.3133 -29.5098)" fill="#D1D3D4" width="162.995" height="0.413"/>
			</g>
			<g>
				
					<rect x="-8.653" y="71.262" transform="matrix(0.7071 0.7071 -0.7071 0.7071 71.8718 -30.576)" fill="#D1D3D4" width="162.994" height="0.413"/>
			</g>
			<g>
				
					<rect x="-7.586" y="70.196" transform="matrix(0.7071 0.7071 -0.7071 0.7071 71.43 -31.6424)" fill="#D1D3D4" width="162.994" height="0.413"/>
			</g>
			<g>
				
					<rect x="-6.52" y="69.129" transform="matrix(0.7071 0.7071 -0.7071 0.7071 70.9881 -32.7088)" fill="#D1D3D4" width="162.994" height="0.413"/>
			</g>
			<g>
				
					<rect x="-5.454" y="68.063" transform="matrix(0.7071 0.7071 -0.7071 0.7071 70.5468 -33.7751)" fill="#D1D3D4" width="162.995" height="0.413"/>
			</g>
			<g>
				
					<rect x="-4.388" y="66.997" transform="matrix(0.7071 0.7071 -0.7071 0.7071 70.1049 -34.8414)" fill="#D1D3D4" width="162.995" height="0.413"/>
			</g>
			<g>
				
					<rect x="-3.321" y="65.931" transform="matrix(0.7071 0.7071 -0.7071 0.7071 69.6633 -35.9077)" fill="#D1D3D4" width="162.994" height="0.413"/>
			</g>
			<g>
				
					<rect x="-2.255" y="64.864" transform="matrix(0.7071 0.7071 -0.7071 0.7071 69.2214 -36.974)" fill="#D1D3D4" width="162.994" height="0.413"/>
			</g>
			<g>
				
					<rect x="-1.189" y="63.798" transform="matrix(0.7071 0.7071 -0.7071 0.7071 68.7801 -38.0404)" fill="#D1D3D4" width="162.995" height="0.413"/>
			</g>
			<g>
				
					<rect x="-0.122" y="62.732" transform="matrix(0.7071 0.7071 -0.7071 0.7071 68.3384 -39.1068)" fill="#D1D3D4" width="162.995" height="0.413"/>
			</g>
			<g>
				
					<rect x="0.944" y="61.665" transform="matrix(0.7071 0.7071 -0.7071 0.7071 67.8965 -40.1731)" fill="#D1D3D4" width="162.995" height="0.413"/>
			</g>
			<g>
				
					<rect x="2.01" y="60.599" transform="matrix(0.7071 0.7071 -0.7071 0.7071 67.4549 -41.2394)" fill="#D1D3D4" width="162.994" height="0.413"/>
			</g>
			<g>
				
					<rect x="3.077" y="59.533" transform="matrix(0.7071 0.7071 -0.7071 0.7071 67.013 -42.3056)" fill="#D1D3D4" width="162.994" height="0.413"/>
			</g>
			<g>
				
					<rect x="4.143" y="58.466" transform="matrix(0.7071 0.7071 -0.7071 0.7071 66.5717 -43.372)" fill="#D1D3D4" width="162.995" height="0.413"/>
			</g>
			<g>
				
					<rect x="5.209" y="57.4" transform="matrix(0.7071 0.7071 -0.7071 0.7071 66.1298 -44.4383)" fill="#D1D3D4" width="162.995" height="0.413"/>
			</g>
			<g>
				
					<rect x="6.276" y="56.334" transform="matrix(0.7071 0.7071 -0.7071 0.7071 65.688 -45.5047)" fill="#D1D3D4" width="162.995" height="0.413"/>
			</g>
			<g>
				
					<rect x="7.342" y="55.267" transform="matrix(0.7071 0.7071 -0.7071 0.7071 65.2465 -46.571)" fill="#D1D3D4" width="162.994" height="0.413"/>
			</g>
			<g>
				
					<rect x="8.408" y="54.201" transform="matrix(0.7071 0.7071 -0.7071 0.7071 64.8046 -47.6373)" fill="#D1D3D4" width="162.994" height="0.413"/>
			</g>
			<g>
				
					<rect x="9.475" y="53.135" transform="matrix(0.7071 0.7071 -0.7071 0.7071 64.3632 -48.7037)" fill="#D1D3D4" width="162.995" height="0.413"/>
			</g>
			<g>
				
					<rect x="10.541" y="52.069" transform="matrix(0.7071 0.7071 -0.7071 0.7071 63.9213 -49.7699)" fill="#D1D3D4" width="162.995" height="0.413"/>
			</g>
			<g>
				
					<rect x="11.607" y="51.002" transform="matrix(0.7071 0.7071 -0.7071 0.7071 63.4798 -50.8362)" fill="#D1D3D4" width="162.994" height="0.413"/>
			</g>
			<g>
				
					<rect x="12.674" y="49.936" transform="matrix(0.7071 0.7071 -0.7071 0.7071 63.038 -51.9026)" fill="#D1D3D4" width="162.994" height="0.413"/>
			</g>
			<g>
				
					<rect x="13.74" y="48.869" transform="matrix(0.7071 0.7071 -0.7071 0.7071 62.5961 -52.9689)" fill="#D1D3D4" width="162.994" height="0.413"/>
			</g>
			<g>
				
					<rect x="14.806" y="47.803" transform="matrix(0.7071 0.7071 -0.7071 0.7071 62.1548 -54.0354)" fill="#D1D3D4" width="162.995" height="0.413"/>
			</g>
			<g>
				
					<rect x="15.873" y="46.737" transform="matrix(0.7071 0.7071 -0.7071 0.7071 61.7129 -55.1016)" fill="#D1D3D4" width="162.995" height="0.413"/>
			</g>
			<g>
				
					<rect x="16.939" y="45.67" transform="matrix(0.7071 0.7071 -0.7071 0.7071 61.2713 -56.1679)" fill="#D1D3D4" width="162.994" height="0.413"/>
			</g>
			<g>
				
					<rect x="18.005" y="44.604" transform="matrix(0.7071 0.7071 -0.7071 0.7071 60.8294 -57.2341)" fill="#D1D3D4" width="162.994" height="0.413"/>
			</g>
			<g>
				
					<rect x="19.071" y="43.538" transform="matrix(0.7071 0.7071 -0.7071 0.7071 60.3881 -58.3006)" fill="#D1D3D4" width="162.995" height="0.413"/>
			</g>
			<g>
				
					<rect x="20.138" y="42.472" transform="matrix(0.7071 0.7071 -0.7071 0.7071 59.9464 -59.367)" fill="#D1D3D4" width="162.995" height="0.413"/>
			</g>
			<g>
				
					<rect x="21.204" y="41.405" transform="matrix(0.7071 0.7071 -0.7071 0.7071 59.5045 -60.4332)" fill="#D1D3D4" width="162.995" height="0.413"/>
			</g>
			<g>
				
					<rect x="22.271" y="40.339" transform="matrix(0.7071 0.7071 -0.7071 0.7071 59.0629 -61.4996)" fill="#D1D3D4" width="162.994" height="0.413"/>
			</g>
			<g>
				
					<rect x="23.337" y="39.272" transform="matrix(0.7071 0.7071 -0.7071 0.7071 58.621 -62.5658)" fill="#D1D3D4" width="162.994" height="0.413"/>
			</g>
			<g>
				
					<rect x="24.403" y="38.206" transform="matrix(0.7071 0.7071 -0.7071 0.7071 58.1797 -63.6322)" fill="#D1D3D4" width="162.995" height="0.413"/>
			</g>
			<g>
				
					<rect x="25.469" y="37.14" transform="matrix(0.7071 0.7071 -0.7071 0.7071 57.7378 -64.6984)" fill="#D1D3D4" width="162.995" height="0.413"/>
			</g>
			<g>
				
					<rect x="26.536" y="36.074" transform="matrix(0.7071 0.7071 -0.7071 0.7071 57.296 -65.7649)" fill="#D1D3D4" width="162.995" height="0.413"/>
			</g>
			<g>
				
					<rect x="27.602" y="35.007" transform="matrix(0.7071 0.7071 -0.7071 0.7071 56.8545 -66.8312)" fill="#D1D3D4" width="162.994" height="0.413"/>
			</g>
			<g>
				
					<rect x="28.668" y="33.941" transform="matrix(0.7071 0.7071 -0.7071 0.7071 56.4125 -67.8974)" fill="#D1D3D4" width="162.994" height="0.413"/>
			</g>
			<g>
				
					<rect x="29.735" y="32.875" transform="matrix(0.7071 0.7071 -0.7071 0.7071 55.9712 -68.9639)" fill="#D1D3D4" width="162.995" height="0.413"/>
			</g>
			<g>
				
					<rect x="30.801" y="31.808" transform="matrix(0.7071 0.7071 -0.7071 0.7071 55.5293 -70.0301)" fill="#D1D3D4" width="162.995" height="0.413"/>
			</g>
			<g>
				
					<rect x="31.867" y="30.742" transform="matrix(0.7071 0.7071 -0.7071 0.7071 55.0877 -71.0965)" fill="#D1D3D4" width="162.994" height="0.413"/>
			</g>
			<g>
				
					<rect x="32.934" y="29.676" transform="matrix(0.7071 0.7071 -0.7071 0.7071 54.646 -72.1629)" fill="#D1D3D4" width="162.994" height="0.413"/>
			</g>
			<g>
				
					<rect x="34" y="28.609" transform="matrix(0.7071 0.7071 -0.7071 0.7071 54.2041 -73.229)" fill="#D1D3D4" width="162.994" height="0.413"/>
			</g>
			<g>
				
					<rect x="35.066" y="27.543" transform="matrix(0.7071 0.7071 -0.7071 0.7071 53.7628 -74.2956)" fill="#D1D3D4" width="162.995" height="0.413"/>
			</g>
		</g>
	</g>
	<g>
		<g>
			<polygon fill="#D2AA0A" points="14.377,111.572 1.625,78.252 4.504,63.855 17.462,53.571 24.661,41.642 42.76,39.585 
				54.278,31.77 65.796,31.358 78.959,20.663 93.768,20.663 103.229,31.358 114.336,28.684 130.79,33.826 137.371,46.578 
				137.371,59.33 143.13,67.146 142.719,82.777 148.375,96.866 141.896,110.749 135.315,124.324 133.052,129.774 126.985,133.682 
				119.272,135.842 103.126,134.505 89.243,134.608 80.605,128.849 78.548,114.863 71.555,111.161 67.441,116.92 55.101,120.21 
				42.76,117.742 36.59,115.274 25.895,118.154 			"/>
		</g>
	</g>
	<g>
		<g>
			<polygon fill="#FFCD05" points="16.331,108.59 25.483,114.451 33.71,109.927 35.562,92.65 38.852,73.111 37.824,68.997 
				35.047,66.118 38.235,67.249 39.367,69.1 41.423,64.781 45.331,60.667 42.143,65.603 40.395,72.082 37.104,94.09 38.647,109.618 
				44.508,114.76 55.718,116.405 65.487,113.115 67.03,107.973 61.682,100.98 62.094,87.611 67.441,62.827 67.853,54.805 
				64.87,50.178 69.292,53.366 69.704,56.245 73.406,51.72 76.388,49.869 73.303,53.674 69.807,61.798 65.899,77.944 65.59,87.508 
				66.363,98.992 72.69,106.419 80.667,110.27 86.981,108.898 81.839,114.04 82.97,127.101 89.963,132.859 103.229,132.037 
				118.346,133.785 125.853,131.728 131.098,127.203 132.538,118.256 134.183,122.473 138.194,112.6 138.605,107.561 
				137.371,102.522 140.045,106.43 140.662,108.384 143.439,102.728 145.084,96.352 142.925,89.976 140.354,83.189 141.485,72.288 
				140.148,67.454 137.371,63.238 134.8,72.802 135.006,81.235 138.4,80.309 134.492,85.76 133.978,92.753 130.687,98.614 
				125.648,103.242 128.322,105.299 129.247,108.281 124.619,105.71 114.233,107.047 99.424,106.122 93.871,106.533 97.47,102.317 
				97.47,87.816 98.91,77.738 103.743,63.855 103.229,55.628 99.938,49.766 104.874,55.217 105.183,56.554 109.502,51.309 
				115.055,49.149 109.708,53.468 105.697,59.125 105.594,64.678 101.378,77.841 100.35,89.667 102.201,97.483 113.616,101.802 
				123.385,101.083 128.733,96.146 131.407,90.387 132.127,72.494 134.595,59.433 134.492,47.195 127.91,35.472 114.747,31.153 
				101.789,34.443 91.506,22.926 79.782,23.543 67.236,34.855 55.101,34.443 43.891,42.829 26.718,44.316 19.107,55.011 
				6.15,64.883 3.476,77.944 10.553,94.816 10.058,83.703 7.075,80.515 5.533,75.784 7.795,79.589 9.749,81.338 10.366,72.391 
				11.6,83.703 12.858,100.311 			"/>
		</g>
	</g>
	<g>
		<g>
			<polygon fill="#D2AA0A" points="87.049,113.629 83.484,118.085 84.513,124.941 89.449,130.7 102.475,129.054 105.08,124.392 
				104.737,120.622 101.447,116.645 			"/>
		</g>
	</g>
	<g>
		<g>
			<polygon fill="#FFCD05" points="87.735,115.343 85.335,118.702 85.747,124.118 89.792,128.917 101.721,127.341 103.366,123.913 
				103.229,121.719 100.35,117.879 			"/>
		</g>
	</g>
	<g>
		<g>
			<path fill="#957900" d="M23.977,78.364c2.047-0.41,3.689-0.08,5.335,0.911c0.217,0.127,0.266,0.373,0.135,0.569l-1.265,1.978
				c-0.114,0.172-0.34,0.217-0.512,0.102c-0.892-0.523-1.97-0.69-2.972-0.49c-2.313,0.464-3.627,2.727-3.168,5.021
				c0.455,2.272,2.551,3.811,4.865,3.348c0.962-0.193,1.936-0.75,2.547-1.532c0.118-0.152,0.385-0.205,0.536-0.086l1.937,1.379
				c0.172,0.115,0.204,0.385,0.09,0.557c-1.121,1.629-2.754,2.616-4.576,2.981c-4.094,0.82-8.042-1.775-8.862-5.869
				C17.247,83.139,19.882,79.184,23.977,78.364z"/>
		</g>
	</g>
	<g>
		<g>
			<path fill="#957900" d="M43.143,70.782c-0.107-0.293,0.049-0.519,0.348-0.54l2.501-0.18c0.171-0.012,0.352,0.125,0.406,0.271
				l2.36,7.114l0.086-0.006l2.772-7.763c0.055-0.133,0.176-0.249,0.347-0.261l0.385-0.028c0.192-0.014,0.328,0.083,0.38,0.208
				l3.855,7.286l0.085-0.006l1.316-7.379c0.032-0.153,0.192-0.314,0.364-0.326l2.5-0.18c0.3-0.021,0.486,0.179,0.422,0.485
				l-3.008,14.655c-0.03,0.175-0.192,0.315-0.363,0.328l-0.342,0.025c-0.15,0.011-0.307-0.086-0.381-0.21l-4.541-8.461l-0.064,0.005
				l-3.261,9.022c-0.055,0.133-0.197,0.251-0.346,0.262l-0.342,0.025c-0.171,0.012-0.352-0.104-0.407-0.272L43.143,70.782z"/>
		</g>
	</g>
	<g>
		<g>
			<path fill="#957900" d="M77.908,78.771c0.006-0.252,0.213-0.473,0.491-0.466l10.423,0.256c0.277,0.007,0.473,0.238,0.467,0.49
				l-0.067,2.744c-0.006,0.251-0.213,0.473-0.491,0.466l-6.973-0.171l-0.089,3.626l5.74,0.141c0.252,0.006,0.473,0.239,0.466,0.491
				l-0.067,2.744c-0.006,0.252-0.238,0.473-0.49,0.467l-5.74-0.141l-0.15,6.118c-0.006,0.251-0.239,0.473-0.491,0.466l-2.97-0.073
				c-0.277-0.007-0.473-0.239-0.467-0.491L77.908,78.771z"/>
		</g>
	</g>
	<g>
		<g>
			<path fill="#957900" d="M112.587,67.878c0.043-0.184,0.247-0.307,0.413-0.287l0.331,0.039c0.104,0.012,0.28,0.117,0.328,0.249
				l3.746,9.527l0.042,0.005l5.873-8.385c0.077-0.117,0.273-0.178,0.377-0.166l0.332,0.039c0.166,0.02,0.335,0.187,0.334,0.376
				l0.688,14.21c0.01,0.274-0.199,0.439-0.447,0.409l-2.446-0.291c-0.187-0.022-0.355-0.21-0.355-0.378l-0.172-6.517l-0.042-0.005
				l-4.28,6.304c-0.077,0.117-0.276,0.199-0.379,0.186l-0.373-0.045c-0.125-0.015-0.278-0.138-0.326-0.27l-2.706-7.133l-0.042-0.005
				l-1.672,6.298c-0.04,0.163-0.226,0.31-0.433,0.285l-2.447-0.291c-0.248-0.03-0.413-0.238-0.34-0.503L112.587,67.878z"/>
		</g>
	</g>
	<g>
		<g>
			<polygon fill="#957900" points="69.573,56.494 75.624,54.477 93.962,53.927 102.031,56.219 105.832,60.18 105.949,63.818 
				104.977,68.342 103.48,71.403 101.16,73.273 98.547,71.417 92.564,69.835 73.653,70.222 66.18,71.806 65.171,68.322 
				65.446,63.187 67.372,58.511 			"/>
		</g>
	</g>
	<g>
		<g>
			<polygon fill="#D2AA0A" points="86.466,55.806 93.893,56.081 99.807,57.663 103.658,60.414 103.796,62.614 102.673,65.709 
				102.031,61.491 99.257,59.245 94.031,57.113 			"/>
		</g>
	</g>
	<g>
		<g>
			<path fill="#FFCD05" d="M76.01,60.955l-0.95-0.024c-0.099-0.002-0.176-0.093-0.174-0.193l0.016-0.623
				c0.001-0.04,0.032-0.118,0.063-0.147l1.473-1.093l0.912,0.023c0.099,0.002,0.176,0.093,0.174,0.193l-0.16,6.358
				c-0.002,0.099-0.084,0.186-0.183,0.184l-1.1-0.028c-0.109-0.003-0.186-0.093-0.184-0.192L76.01,60.955z"/>
		</g>
		<g>
			<path fill="#FFCD05" d="M78.742,64.61l0.639-0.598c0.061-0.058,0.16-0.075,0.239-0.024c0,0,0.691,0.493,1.167,0.504
				c0.535,0.013,0.95-0.373,0.964-0.917c0.013-0.535-0.353-0.97-0.996-0.986l-1.525-0.038c-0.198-0.005-0.302-0.196-0.298-0.354
				l0.077-3.07c0.002-0.099,0.083-0.186,0.192-0.184l3.189,0.08c0.109,0.003,0.186,0.094,0.184,0.193l-0.022,0.871
				c-0.003,0.099-0.084,0.186-0.193,0.184l-2.04-0.051l-0.026,1.059l0.703,0.018c1.366,0.034,2.233,1.018,2.201,2.314
				c-0.031,1.238-1.116,2.241-2.502,2.206c-1.03-0.026-1.7-0.567-1.94-0.87C78.628,64.795,78.62,64.726,78.742,64.61z"/>
		</g>
		<g>
			<path fill="#FFCD05" d="M84.076,62.434c0.054-2.168,1.007-3.442,2.622-3.402c1.614,0.04,2.502,1.36,2.448,3.529
				c-0.054,2.169-1.008,3.443-2.622,3.402C84.91,65.923,84.022,64.603,84.076,62.434z M87.551,62.521
				c0.033-1.297-0.286-2.038-0.89-2.053s-0.959,0.709-0.992,2.006c-0.032,1.308,0.286,2.039,0.89,2.054
				C87.164,64.543,87.519,63.829,87.551,62.521z"/>
		</g>
		<g>
			<path fill="#FFCD05" d="M90.857,64.19c0.515,0.013,0.939,0.459,0.926,0.974c-0.012,0.506-0.458,0.92-0.973,0.907
				c-0.505-0.013-0.92-0.449-0.908-0.954C89.915,64.602,90.352,64.177,90.857,64.19z"/>
		</g>
		<g>
			<path fill="#FFCD05" d="M93.087,61.382l-0.951-0.024c-0.099-0.003-0.176-0.093-0.174-0.193l0.016-0.623
				c0.001-0.04,0.032-0.118,0.063-0.148l1.473-1.093l0.912,0.023c0.099,0.003,0.176,0.093,0.174,0.193l-0.16,6.358
				c-0.002,0.099-0.084,0.186-0.183,0.184l-1.1-0.027c-0.109-0.003-0.185-0.094-0.183-0.193L93.087,61.382z"/>
		</g>
	</g>
</g>
</svg>
